<svg viewBox="0 0 20 23" fill="none" xmlns="http://www.w3.org/2000/svg">
  <path
    d="M14 5.03129V4.23125C14.0796 3.52042 14.0052 2.80081 13.782 2.12126C13.5886 1.74717 13.283 1.44296 12.908 1.25126C12.2296 1.02591 11.5103 0.950868 10.8 1.03129H9.20001C8.48971 0.950868 7.77037 1.02591 7.09198 1.25126C6.717 1.44296 6.41143 1.74717 6.21802 2.12126C5.99482 2.80081 5.92045 3.52042 6 4.23125V5.03129M8 10.5313V15.5313M12 10.5313V15.5313M1 5.03129H19M17 5.03129V16.2312C17.1199 17.2958 17.0083 18.3738 16.673 19.3913C16.3889 19.9581 15.929 20.4177 15.362 20.7013C14.3444 21.0394 13.2655 21.1519 12.2 21.0313H7.79999C6.73453 21.1519 5.65559 21.0394 4.638 20.7013C4.07098 20.4177 3.61107 19.9581 3.32703 19.3913C2.9917 18.3738 2.88012 17.2958 3 16.2312V5.03129"
    stroke="currentColor" stroke-linecap="round" stroke-linejoin="round" />
</svg>