<svg viewBox="0 0 23 21" fill="none" xmlns="http://www.w3.org/2000/svg">
  <path
    d="M11.0311 19.0312L10.931 18.8813C10.5251 18.1671 10.0201 17.514 9.43103 16.9414C9.02038 16.6121 8.55269 16.361 8.05115 16.2012C7.24626 16.0315 6.4218 15.9744 5.6012 16.0312H4.23108C3.52012 16.1116 2.80031 16.0364 2.12122 15.811C1.7482 15.618 1.44412 15.3144 1.2511 14.9414C1.02602 14.2623 0.95099 13.542 1.03113 12.831V4.23143C0.95099 3.52047 1.02602 2.80022 1.2511 2.12108C1.44412 1.74807 1.7482 1.44447 2.12122 1.25145C2.80031 1.02612 3.52012 0.95084 4.23108 1.03124H4.63123C6.87123 1.03124 7.9912 1.03118 8.8512 1.47118C9.60143 1.85146 10.2109 2.46119 10.5912 3.21141C11.0312 4.07141 11.0311 5.19114 11.0311 7.43114M11.0311 19.0312V7.43114M11.0311 19.0312L11.1312 18.8813C11.5371 18.1671 12.0421 17.514 12.6312 16.9414C13.0419 16.6121 13.5096 16.361 14.0111 16.2012C14.816 16.0315 15.6405 15.9744 16.4611 16.0312H17.8312C18.5421 16.1116 19.262 16.0364 19.941 15.811C20.3141 15.618 20.6181 15.3144 20.8112 14.9414C21.0362 14.2623 21.1113 13.542 21.0311 12.831V4.23143C21.1113 3.52047 21.0362 2.80022 20.8112 2.12108C20.6181 1.74807 20.3141 1.44447 19.941 1.25145C19.262 1.02612 18.5421 0.95084 17.8312 1.03124H17.431C15.191 1.03124 14.0711 1.03118 13.2111 1.47118C12.4608 1.85146 11.8514 2.46119 11.4711 3.21141C11.0311 4.07141 11.0311 5.19114 11.0311 7.43114"
    stroke="currentColor" stroke-linecap="round" stroke-linejoin="round" />
</svg>