<svg viewBox="0 0 21 23" fill="none" xmlns="http://www.w3.org/2000/svg">
  <path
    d="M19.0471 9H1.0471M14.0471 1V5M6.0471 1V5M5.84715 21H14.2471C15.3119 21.121 16.3903 21.0083 17.4071 20.6699C17.9768 20.3904 18.4377 19.9296 18.7171 19.3599C19.0555 18.343 19.168 17.265 19.0471 16.2002V7.7998C19.168 6.73501 19.0555 5.65698 18.7171 4.64014C18.4377 4.0704 17.9768 3.60955 17.4071 3.33008C16.3903 2.99174 15.3119 2.87904 14.2471 3H5.84715C4.78235 2.87904 3.70395 2.99174 2.68712 3.33008C2.11738 3.60955 1.65654 4.0704 1.37706 4.64014C1.03875 5.65698 0.926181 6.73501 1.0471 7.7998V16.2002C0.926181 17.265 1.03875 18.343 1.37706 19.3599C1.65654 19.9296 2.11738 20.3904 2.68712 20.6699C3.70395 21.0083 4.78235 21.121 5.84715 21ZM5.0471 12.5C5.0471 12.2239 5.27096 12 5.5471 12C5.82325 12 6.0471 12.2239 6.0471 12.5C6.0471 12.7761 5.82325 13 5.5471 13C5.27096 13 5.0471 12.7761 5.0471 12.5ZM5.0471 16.5C5.0471 16.2239 5.27096 16 5.5471 16C5.82325 16 6.0471 16.2239 6.0471 16.5C6.0471 16.7761 5.82325 17 5.5471 17C5.27096 17 5.0471 16.7761 5.0471 16.5ZM9.5 12.5C9.5 12.2239 9.72386 12 10 12C10.2761 12 10.5 12.2239 10.5 12.5C10.5 12.7761 10.2761 13 10 13C9.72386 13 9.5 12.7761 9.5 12.5ZM9.5 16.5C9.5 16.2239 9.72386 16 10 16C10.2761 16 10.5 16.2239 10.5 16.5C10.5 16.7761 10.2761 17 10 17C9.72386 17 9.5 16.7761 9.5 16.5ZM14.0471 12.5C14.0471 12.2239 14.271 12 14.5471 12C14.8232 12 15.0471 12.2239 15.0471 12.5C15.0471 12.7761 14.8232 13 14.5471 13C14.271 13 14.0471 12.7761 14.0471 12.5ZM14.0471 16.5C14.0471 16.2239 14.271 16 14.5471 16C14.8232 16 15.0471 16.2239 15.0471 16.5C15.0471 16.7761 14.8232 17 14.5471 17C14.271 17 14.0471 16.7761 14.0471 16.5Z"
    stroke="currentColor" stroke-linecap="round" stroke-linejoin="round" />
</svg>