<svg viewBox="0 0 22 22" fill="none" xmlns="http://www.w3.org/2000/svg">
  <path
    d="M16.5 8.82843L12.5 4.82843M1 20.3284L4.384 19.9524C4.65902 19.9353 4.93167 19.8911 5.198 19.8204C5.36956 19.7653 5.53276 19.6869 5.68301 19.5874C5.90426 19.4235 6.1089 19.2383 6.29401 19.0344L19.5 5.82843C20.0304 5.298 20.3284 4.57858 20.3284 3.82843C20.3284 3.07828 20.0304 2.35886 19.5 1.82843C18.9696 1.298 18.2501 1 17.5 1C16.7499 1 16.0304 1.298 15.5 1.82843L2.29401 15.0344C2.09015 15.2195 1.90493 15.4242 1.741 15.6454C1.6416 15.7959 1.56288 15.959 1.50699 16.1304C1.4373 16.3969 1.39345 16.6695 1.37601 16.9444L1 20.3284Z"
    stroke="currentColor" stroke-linecap="round" stroke-linejoin="round" />
</svg>