<svg viewBox="0 0 22 20" fill="none" xmlns="http://www.w3.org/2000/svg">
  <path fill-rule="evenodd" clip-rule="evenodd"
    d="M10.9915 3.12339C10.5421 2.53916 9.97871 2.05235 9.33547 1.69249C8.69223 1.33262 7.98257 1.1072 7.24956 1.02995C6.51656 0.952703 5.7755 1.02527 5.07137 1.24315C4.36725 1.46102 3.71474 1.81968 3.15346 2.29741C1.96094 3.28645 1.2008 4.70134 1.03445 6.24168C0.868089 7.78203 1.30861 9.32655 2.26247 10.5474C4.8322 13.3736 7.57336 16.0389 10.4705 18.5284C10.5767 18.6441 10.7053 18.737 10.8485 18.8014C10.9419 18.8284 11.041 18.8284 11.1345 18.8014C11.2778 18.7372 11.4064 18.6443 11.5125 18.5284C14.4098 16.0392 17.151 13.3738 19.7205 10.5474C20.6849 9.33077 21.1321 7.78365 20.9656 6.24009C20.7991 4.69653 20.0322 3.28037 18.8305 2.29741C18.2683 1.82154 17.6155 1.46443 16.9116 1.24766C16.2076 1.03089 15.4671 0.95899 14.7345 1.03618C14.002 1.11336 13.2927 1.33809 12.6494 1.69682C12.0061 2.05555 11.4422 2.5408 10.9915 3.12339Z"
    stroke="currentColor" stroke-linecap="round" stroke-linejoin="round" />
</svg>