<svg viewBox="0 0 21 21" fill="none" xmlns="http://www.w3.org/2000/svg">
  <path
    d="M7.03091 19.73V12.33C6.99058 11.9762 7.02778 11.618 7.13992 11.28C7.23345 11.0895 7.38697 10.9348 7.5769 10.84C7.9161 10.7273 8.27576 10.6898 8.63092 10.73H11.4309C11.7861 10.6898 12.1457 10.7273 12.4849 10.84C12.6749 10.9348 12.8284 11.0895 12.9219 11.28C13.034 11.618 13.0712 11.9762 13.0309 12.33V19.73M9.04892 1.49L2.2659 6.77003C1.95299 6.98167 1.66953 7.23387 1.42291 7.52003C1.27625 7.71432 1.1683 7.93489 1.10492 8.16993C1.03095 8.54174 1.00606 8.92165 1.03091 9.29993V16.53C0.951393 17.2409 1.02573 17.9605 1.2489 18.64C1.44231 19.0141 1.74795 19.3183 2.12292 19.51C2.80132 19.7354 3.52062 19.8104 4.23092 19.73H15.8309C16.5412 19.8104 17.2605 19.7354 17.9389 19.51C18.3139 19.3183 18.6195 19.0141 18.8129 18.64C19.0361 17.9605 19.1104 17.2409 19.0309 16.53V9.29993C19.0558 8.92165 19.0309 8.54174 18.9569 8.16993C18.8935 7.93489 18.7856 7.71432 18.6389 7.52003C18.3923 7.23387 18.1088 6.98167 17.7959 6.77003L11.0129 1.49C10.8032 1.29322 10.5587 1.13726 10.2919 1.03004C10.1202 0.989988 9.94162 0.989988 9.76993 1.03004C9.50311 1.13726 9.2586 1.29322 9.04892 1.49Z"
    stroke="currentColor" stroke-linecap="round" stroke-linejoin="round" />
</svg>