<svg viewBox="0 0 19 20" fill="none" xmlns="http://www.w3.org/2000/svg">
  <path
    d="M17.0235 19C17.0844 18.1097 17.0272 17.2153 16.8535 16.34C16.6618 15.71 16.3179 15.1369 15.8523 14.6713C15.3866 14.2056 14.8136 13.8618 14.1836 13.67C13.3083 13.4964 12.4138 13.4392 11.5235 13.5H6.52355C5.63326 13.4392 4.73881 13.4964 3.86351 13.67C3.23352 13.8618 2.66046 14.2056 2.19481 14.6713C1.72917 15.1369 1.38533 15.71 1.19359 16.34C1.01991 17.2153 0.962702 18.1097 1.02355 19M13.5235 5.5C13.5235 6.39002 13.2596 7.2601 12.7651 8.00013C12.2707 8.74015 11.5679 9.31688 10.7456 9.65747C9.92333 9.99807 9.01853 10.0872 8.14562 9.91358C7.2727 9.73994 6.47088 9.31135 5.84154 8.68201C5.2122 8.05267 4.78361 7.25085 4.60997 6.37793C4.43634 5.50502 4.52548 4.60023 4.86608 3.77796C5.20667 2.95569 5.7834 2.25289 6.52343 1.75843C7.26345 1.26396 8.13353 1 9.02355 1C9.61472 0.999214 10.2002 1.11508 10.7466 1.34095C11.2929 1.56681 11.7892 1.89827 12.2073 2.31629C12.6253 2.73431 12.9567 3.23066 13.1826 3.77698C13.4085 4.3233 13.5243 4.90883 13.5235 5.5Z"
    stroke="currentColor" stroke-linecap="round" stroke-linejoin="round" />
</svg>